<?xml version="1.0" standalone="no"?>
<!DOCTYPE svg PUBLIC "-//W3C//DTD SVG 20010904//EN"
 "http://www.w3.org/TR/2001/REC-SVG-20010904/DTD/svg10.dtd">
<svg version="1.0" xmlns="http://www.w3.org/2000/svg"
 width="794.000000pt" height="794.000000pt" viewBox="0 0 794.000000 794.000000"
 preserveAspectRatio="xMidYMid meet">

<g transform="translate(0.000000,794.000000) scale(0.100000,-0.100000)"
fill="#000000" stroke="none">
<path d="M6496 7490 c-10 -49 -23 -90 -27 -90 -5 0 -9 -7 -9 -16 0 -24 -42
-198 -50 -209 -4 -5 -16 -46 -25 -90 -10 -44 -21 -84 -25 -90 -4 -5 -17 -55
-30 -110 -13 -55 -26 -104 -30 -110 -4 -5 -18 -57 -31 -115 -12 -58 -26 -107
-29 -110 -4 -3 -14 -41 -24 -85 -9 -44 -22 -88 -27 -98 -5 -10 -7 -22 -4 -27
4 -6 2 -10 -2 -10 -5 0 -17 -39 -27 -87 -11 -49 -22 -90 -26 -93 -4 -3 -17
-53 -30 -112 -13 -60 -27 -108 -32 -108 -4 0 -8 -8 -8 -17 0 -23 -29 -145 -39
-163 -5 -9 -19 -61 -31 -115 -13 -55 -27 -101 -32 -103 -4 -2 -8 -11 -8 -19 0
-22 -39 -185 -50 -208 -5 -11 -17 -54 -26 -95 -9 -41 -20 -79 -24 -85 -4 -5
-17 -55 -30 -110 -13 -55 -26 -104 -30 -110 -4 -5 -18 -57 -31 -115 -12 -58
-26 -107 -29 -110 -4 -3 -15 -44 -26 -92 -10 -49 -21 -88 -25 -88 -4 0 -10
-17 -14 -37 -12 -72 -39 -178 -45 -183 -4 -3 -17 -53 -30 -112 -13 -60 -27
-108 -32 -108 -4 0 -8 -8 -8 -17 0 -23 -29 -145 -39 -164 -5 -8 -19 -61 -32
-117 -12 -56 -26 -102 -31 -102 -4 0 -8 -7 -8 -16 0 -23 -42 -198 -50 -209 -4
-5 -16 -47 -25 -92 -10 -46 -22 -83 -26 -83 -5 0 -9 -7 -9 -16 0 -24 -39 -186
-50 -209 -9 -17 -17 -50 -48 -195 -3 -14 -8 -27 -11 -30 -4 -3 -15 -41 -25
-85 -10 -44 -22 -84 -26 -90 -4 -5 -16 -46 -25 -90 -9 -44 -20 -91 -23 -105
-3 -14 -8 -27 -12 -30 -3 -3 -17 -53 -30 -112 -13 -60 -27 -108 -32 -108 -4 0
-8 -7 -8 -16 0 -24 -33 -158 -40 -164 -4 -3 -17 -53 -30 -113 -13 -59 -27
-107 -32 -107 -4 0 -8 -7 -8 -16 0 -23 -39 -185 -50 -209 -5 -11 -17 -54 -26
-95 -9 -41 -20 -79 -24 -85 -4 -5 -17 -55 -30 -110 -12 -55 -26 -104 -30 -110
-4 -5 -13 -37 -20 -70 -12 -66 -27 -119 -40 -150 -5 -11 -16 -54 -26 -95 -9
-41 -20 -79 -24 -85 -4 -5 -16 -46 -25 -90 -9 -44 -20 -91 -23 -105 -3 -14 -8
-27 -11 -30 -8 -6 -41 -139 -41 -163 0 -16 39 -17 712 -15 l712 3 13 55 c8 30
18 64 23 75 5 11 17 54 26 95 9 41 20 80 24 85 4 6 17 55 30 110 12 55 26 105
30 110 4 6 13 37 20 70 13 67 27 120 40 150 5 11 16 54 25 95 9 41 20 79 25
85 7 9 33 117 47 197 3 16 9 28 14 28 5 0 9 7 9 15 0 28 44 200 52 203 4 2 8
9 8 15 -1 27 35 167 42 167 4 0 8 7 8 15 0 23 43 199 50 205 4 3 17 53 30 113
13 59 27 107 32 107 4 0 8 8 8 17 0 23 29 145 39 163 5 9 19 60 31 115 12 55
26 102 29 105 4 3 17 52 30 110 13 58 26 110 31 115 4 6 15 46 25 90 9 44 21
85 25 90 4 6 17 55 30 110 12 55 26 105 30 110 4 6 13 37 20 70 13 67 27 120
40 150 5 11 16 54 25 95 9 41 20 79 25 85 4 5 13 37 20 70 12 66 27 119 40
150 10 23 50 182 52 205 0 8 4 17 8 20 3 3 14 44 24 93 10 48 22 87 26 87 4 0
11 17 15 38 12 71 39 177 45 182 4 3 15 43 24 90 10 47 23 90 28 97 5 7 7 17
3 23 -3 5 -1 10 4 10 6 0 11 7 11 16 0 24 33 158 40 164 3 3 17 52 29 110 13
58 26 107 30 110 4 3 15 43 25 90 10 47 23 91 28 98 6 7 8 15 5 19 -4 3 -3 11
2 17 5 6 16 47 26 91 9 44 21 85 25 90 4 6 17 55 30 110 12 55 26 105 30 110
4 6 15 46 25 90 9 44 21 85 26 91 6 7 9 16 8 20 -1 5 0 16 4 24 3 8 13 49 22
90 9 41 20 79 24 85 5 5 18 55 31 110 12 55 26 105 30 110 4 6 13 39 20 75 7
36 19 79 26 95 7 17 23 73 34 125 12 52 25 99 29 105 5 5 17 46 26 90 9 44 20
91 23 105 3 14 8 27 12 30 3 3 15 43 25 90 9 47 21 87 25 90 4 3 15 41 25 85
10 44 22 101 28 127 6 26 7 51 3 55 -4 5 -326 9 -715 11 l-707 3 -18 -91z"/>
<path d="M30 4035 l0 -2405 543 1 c298 1 823 4 1167 9 l625 7 149 32 c369 80
684 215 936 401 384 286 659 731 770 1250 77 359 98 800 52 1079 -81 496 -239
906 -461 1196 -63 82 -190 214 -270 279 -99 81 -342 233 -468 293 -254 119
-507 199 -708 222 -49 6 -504 16 -1010 23 -506 6 -1011 13 -1122 15 l-203 4 0
-2406z m2030 1277 c211 -38 401 -106 525 -187 97 -63 206 -180 249 -266 58
-117 109 -421 121 -724 10 -221 -21 -648 -55 -775 -69 -257 -318 -484 -640
-585 -72 -22 -91 -23 -487 -29 l-413 -7 0 403 c0 222 -3 804 -7 1295 l-6 891
24 5 c13 3 148 4 299 2 225 -2 296 -6 390 -23z"/>
</g>
</svg>
